# xmcd
#
# Track frame offsets: 
#        150
#        16927
#        33930
#        43672
#        57260
#        72022
#        77735
#        90087
#        108652
#        124332
#        134852
#        145012
#
# Disc length: 2075 seconds
#
# Revision: 0
# Processed by: cddbd v1.5.2PL0 Copyright (c) Steve Scherf et al.
# Submitted via: ExactAudioCopy v0.95b4
#
DISCID=9f08190c
DTITLE=Rock Bottom Bluegrass Band - Virginia Creeper Line
DYEAR=1999
DGENRE=Bluegrass
TTITLE0=Virginia Creeper Line
TTITLE1=He Hears Daddy
TTITLE2=Uncle Frank
TTITLE3=Kawlija
TTITLE4=Cool Fall Wind
TTITLE5=I'm Going Up
TTITLE6=Handsome Molly
TTITLE7=House of Gold
TTITLE8=Dorothy's Breakdown
TTITLE9=Little Pink Feet
TTITLE10=Dooley
TTITLE11=Cold Wind
EXTD=
EXTT0=
EXTT1=
EXTT2=
EXTT3=
EXTT4=
EXTT5=
EXTT6=
EXTT7=
EXTT8=
EXTT9=
EXTT10=
EXTT11=
PLAYORDER=
